<?xml version="1.0" encoding="utf-8"?>
<svg viewBox="100 100 250 250" width="300pt" height="300pt" xmlns="http://www.w3.org/2000/svg">
  <g transform="matrix(0.10000000149011612, 0, 0, -0.10000000149011612, -68.71249389648438, 333.6808776855469)" fill="#000000" stroke="none">
    <path d="M 2863.98 2299.083 C 2821.98 2279.083 2744.98 2196.083 2694.98 2117.083 C 2678.98 2092.083 2606.98 2014.083 2534.98 1942.083 C 2391.98 1801.083 2297.98 1677.083 2228.98 1538.083 C 2157.98 1396.083 2114.98 1208.083 2121.98 1072.083 C 2127.98 947.083 2140.037 877.26 2147.98 852.083 C 2154.462 831.534 2171.835 764.86 2184.98 730.083 C 2185.98 723.083 2206.98 677.083 2231.98 628.083 C 2307.98 475.083 2419.98 336.083 2591.98 178.083 C 2623.98 149.083 2674.98 88.083 2703.98 43.083 C 2766.98 -53.917 2829.98 -115.917 2881.98 -132.917 C 2919.98 -144.917 2997.98 -139.917 3028.98 -122.917 C 3070.98 -98.917 3152.98 -6.917 3210.98 83.083 C 3267.98 171.083 3342.98 264.083 3444.98 372.083 C 3467.98 396.083 3567.98 540.083 3626.98 632.083 C 3650.98 671.083 3700.98 778.083 3708.98 810.083 C 3713.98 828.083 3725.98 869.083 3734.98 902.083 C 3747.98 945.083 3752.98 996.083 3752.98 1087.083 C 3753.98 1225.083 3731.98 1327.083 3676.98 1442.083 C 3628.98 1542.083 3520.98 1710.083 3464.98 1770.083 C 3450.98 1785.083 3440.768 1800.54 3438.98 1803.083 C 3437.192 1805.626 3418.98 1829.083 3394.98 1855.083 C 3323.98 1931.083 3264.98 2007.083 3203.98 2103.083 C 3141.98 2199.083 3079.98 2270.083 3036.98 2293.083 C 2990.98 2317.083 2908.98 2320.083 2863.98 2299.083 Z M 3005.98 2181.083 C 3023.98 2167.083 3074.98 2104.083 3118.98 2039.083 C 3162.98 1975.083 3211.98 1906.083 3228.98 1887.083 C 3244.98 1868.083 3261.98 1848.083 3266.98 1842.083 C 3306.98 1790.083 3405.98 1670.083 3414.98 1662.083 C 3451.98 1629.083 3568.98 1436.083 3568.98 1406.083 C 3568.98 1400.083 3559.98 1384.083 3548.98 1370.083 C 3506.98 1316.083 3537.98 1242.083 3608.98 1231.083 L 3646.98 1225.083 L 3643.98 1088.083 C 3640.98 937.083 3628.98 887.083 3585.98 844.083 C 3562.98 822.083 3558.98 811.083 3563.98 787.083 C 3568.98 765.083 3562.98 744.083 3540.98 705.083 C 3495.98 623.083 3447.98 547.083 3440.98 546.083 C 3424.98 545.083 3381.98 537.083 3360.98 532.083 C 3334.98 526.083 3315.98 486.083 3324.98 452.083 C 3332.98 421.083 3320.98 401.083 3223.98 277.083 C 3178.98 219.083 3117.98 137.083 3087.98 93.083 C 3020.98 -5.917 2981.98 -36.917 2927.98 -34.917 C 2871.98 -31.917 2814.98 0.083 2798.98 37.083 C 2785.98 70.083 2788.98 154.083 2808.98 285.083 C 2825.98 398.083 2822.98 401.083 2638.98 469.083 C 2624.98 474.083 2600.98 489.083 2584.98 502.083 C 2557.98 523.083 2554.98 533.083 2550.98 591.083 C 2545.98 663.083 2552.98 677.083 2640.98 774.083 C 2661.98 798.083 2678.98 827.083 2678.98 840.083 C 2678.98 870.083 2636.98 915.083 2566.98 960.083 C 2500.98 1002.083 2475.98 1045.083 2480.98 1109.083 C 2481.98 1133.083 2486.98 1157.083 2491.98 1162.083 C 2495.98 1168.083 2507.98 1184.083 2518.98 1199.083 C 2529.98 1213.083 2562.98 1238.083 2590.98 1255.083 C 2661.98 1295.083 2682.98 1320.083 2681.98 1363.083 C 2680.98 1392.083 2669.98 1408.083 2614.98 1461.083 C 2549.98 1524.083 2548.98 1526.083 2548.98 1577.083 C 2548.98 1618.083 2554.98 1638.083 2580.98 1678.083 C 2598.98 1705.083 2621.706 1723.752 2628.98 1727.083 C 2638.147 1731.281 2649.098 1735.113 2654.98 1737.083 C 2663.025 1739.778 2689.98 1750.083 2719.98 1754.083 C 2781.98 1761.083 2828.98 1799.083 2828.98 1840.083 C 2828.98 1854.083 2812.98 1898.083 2793.98 1939.083 C 2766.98 1994.083 2759.98 2019.083 2764.98 2042.083 C 2775.98 2093.083 2805.98 2143.083 2847.98 2179.083 C 2881.98 2208.083 2892.98 2212.083 2930.98 2209.083 C 2955.98 2206.083 2986.98 2195.083 3005.98 2181.083 Z M 2414.98 1621.083 C 2423.98 1587.083 2404.98 1547.083 2378.98 1547.083 C 2361.98 1547.083 2358.98 1554.083 2358.98 1585.083 C 2358.98 1644.083 2401.98 1672.083 2414.98 1621.083 Z M 2314.98 1355.083 C 2331.98 1301.083 2308.98 1237.083 2272.98 1237.083 C 2251.98 1237.083 2228.98 1279.083 2228.98 1319.083 C 2228.98 1391.083 2294.98 1418.083 2314.98 1355.083 Z M 2248.98 1102.083 C 2265.98 1081.083 2249.98 1023.083 2225.98 1019.083 C 2203.98 1014.083 2178.98 1034.083 2178.98 1056.083 C 2178.98 1078.083 2206.98 1117.083 2222.98 1117.083 C 2230.98 1117.083 2241.98 1110.083 2248.98 1102.083 Z M 2326.98 901.083 C 2395.98 853.083 2402.98 702.083 2337.98 682.083 C 2275.98 662.083 2198.98 794.083 2228.98 867.083 C 2249.98 917.083 2286.98 929.083 2326.98 901.083 Z M 2473.98 573.083 C 2496.98 538.083 2489.98 483.083 2461.98 479.083 C 2418.98 473.083 2387.98 564.083 2426.98 586.083 C 2451.98 601.083 2456.98 600.083 2473.98 573.083 Z"/>
    <path d="M 2912.325 2065.897 C 2886.325 2037.897 2882.325 1973.897 2904.325 1925.897 C 2958.325 1803.897 2961.325 1765.897 2925.325 1708.897 C 2900.325 1668.897 2876.325 1657.897 2788.325 1643.897 C 2763.325 1639.897 2744.325 1628.897 2730.325 1609.897 C 2698.325 1564.897 2704.325 1524.897 2749.325 1475.897 C 2817.325 1401.897 2838.325 1339.897 2820.325 1266.897 C 2811.325 1230.897 2801.325 1216.897 2769.325 1197.897 C 2675.325 1140.897 2644.325 1099.897 2655.325 1048.897 C 2660.325 1023.897 2733.325 950.897 2776.325 925.897 C 2806.325 908.897 2833.325 837.897 2826.325 791.897 C 2820.325 749.897 2783.325 677.897 2758.325 661.897 C 2735.325 647.897 2710.325 600.897 2710.325 572.897 C 2710.325 535.897 2766.325 483.897 2821.325 468.897 C 2877.325 453.897 2927.325 422.897 2935.325 399.897 C 2943.325 374.897 2919.551 312.004 2909.325 287.897 C 2900.523 265.213 2894.325 246.897 2892.325 179.897 C 2892.325 179.897 2876.946 111.444 2888.022 80.013 C 2891.537 70.037 2915.178 65.157 2915.178 65.157 C 2950.914 61.144 2987.325 69.897 3008.325 108.897 C 3020.325 131.897 3020.325 236.897 3008.325 303.897 C 3006.325 320.897 3016.325 326.897 3069.325 344.897 C 3155.325 371.897 3166.325 390.897 3120.325 429.897 C 3101.325 445.897 3071.325 464.897 3053.325 470.897 C 3014.325 484.897 2994.325 521.897 3016.325 539.897 C 3024.325 546.897 3067.325 553.897 3111.325 556.897 C 3223.325 562.897 3231.325 595.897 3131.325 639.897 C 3054.325 673.897 3041.325 680.897 3035.325 696.897 C 3025.325 722.897 3052.325 737.897 3128.325 748.897 C 3209.325 759.897 3240.325 772.897 3240.325 792.897 C 3240.325 812.897 3222.325 822.897 3146.325 847.897 C 3108.325 859.897 3068.325 879.897 3058.325 891.897 C 3039.325 912.897 3039.325 913.897 3059.325 929.897 C 3070.325 938.897 3107.325 948.897 3140.325 952.897 C 3221.325 961.897 3250.325 973.897 3250.325 997.897 C 3250.325 1012.897 3230.325 1024.897 3163.325 1051.897 C 3115.325 1070.897 3071.325 1093.897 3066.325 1101.897 C 3052.325 1123.897 3075.325 1146.897 3119.325 1153.897 C 3227.325 1171.897 3259.325 1180.897 3264.325 1195.897 C 3274.325 1220.897 3253.325 1235.897 3170.325 1263.897 C 3041.325 1306.897 3039.325 1333.897 3160.325 1383.897 C 3271.325 1428.897 3266.325 1451.897 3139.325 1493.897 C 3069.325 1517.897 3060.325 1522.897 3060.325 1544.897 C 3060.325 1562.897 3069.325 1573.897 3093.325 1584.897 C 3157.325 1615.897 3181.325 1630.897 3187.325 1645.897 C 3195.325 1666.897 3155.325 1698.897 3120.325 1698.897 C 3083.325 1698.897 3030.325 1718.897 3030.325 1731.897 C 3030.325 1749.897 3041.325 1760.897 3088.325 1792.897 C 3111.325 1808.897 3130.325 1824.897 3130.325 1829.897 C 3130.325 1843.897 3088.325 1867.897 3033.325 1884.897 C 2973.325 1903.897 2964.325 1925.897 3000.325 1971.897 C 3027.325 2005.897 3025.325 2032.897 2995.325 2063.897 C 2963.325 2094.897 2940.325 2095.897 2912.325 2065.897 Z"/>
    <path d="M 3324.325 1574.897 C 3291.325 1523.897 3356.325 1463.897 3400.325 1503.897 C 3438.325 1538.897 3419.325 1588.897 3364.325 1594.897 C 3347.325 1595.897 3335.325 1589.897 3324.325 1574.897 Z"/>
    <path d="M 3386.325 1382.897 C 3343.325 1340.897 3361.325 1266.897 3415.325 1260.897 C 3452.325 1255.897 3470.325 1279.897 3470.325 1329.897 C 3470.325 1389.897 3422.325 1419.897 3386.325 1382.897 Z"/>
    <path d="M 3483.325 1126.897 C 3435.325 1072.897 3435.325 983.897 3485.325 941.897 C 3518.325 912.897 3541.325 912.897 3569.325 942.897 C 3615.325 991.897 3614.325 1076.897 3568.325 1125.897 C 3541.325 1154.897 3509.325 1154.897 3483.325 1126.897 Z"/>
    <path d="M 3414.325 770.897 C 3377.325 746.897 3378.325 679.897 3416.325 664.897 C 3459.325 647.897 3489.325 728.897 3452.325 761.897 C 3431.325 780.897 3429.325 781.897 3414.325 770.897 Z"/>
  </g>
</svg>