<svg viewBox="0 0 200 200" xmlns="http://www.w3.org/2000/svg">
  <!-- Background -->
  <rect width="200" height="200" fill="#f8fafc" rx="20"/>
  
  <!-- Monitor screen -->
  <rect x="40" y="60" width="120" height="80" fill="#1e293b" stroke="#475569" stroke-width="3" rx="6"/>
  
  <!-- Screen content - monitoring graphs -->
  <g transform="translate(50, 70)">
    <!-- CPU/Memory usage bars -->
    <text x="0" y="10" fill="#10b981" font-family="monospace" font-size="8">CPU</text>
    <rect x="25" y="2" width="70" height="8" fill="#374151" rx="2"/>
    <rect x="25" y="2" width="45" height="8" fill="#10b981" rx="2"/>
    
    <text x="0" y="25" fill="#f59e0b" font-family="monospace" font-size="8">MEM</text>
    <rect x="25" y="17" width="70" height="8" fill="#374151" rx="2"/>
    <rect x="25" y="17" width="28" height="8" fill="#f59e0b" rx="2"/>
    
    <!-- Network activity graph -->
    <text x="0" y="40" fill="#06b6d4" font-family="monospace" font-size="8">NET</text>
    <polyline points="25,45 35,35 45,40 55,25 65,30 75,20 85,35 95,25" 
              fill="none" stroke="#06b6d4" stroke-width="2"/>
  </g>
  
  <!-- Monitor stand -->
  <rect x="90" y="140" width="20" height="20" fill="#6b7280" rx="2"/>
  <rect x="70" y="160" width="60" height="8" fill="#374151" rx="4"/>
  
  <!-- Status indicators -->
  <g transform="translate(30, 30)">
    <circle cx="0" cy="0" r="5" fill="#10b981"/>
    <text x="10" y="4" fill="#065f46" font-family="sans-serif" font-size="10" font-weight="bold">ONLINE</text>
    
    <circle cx="80" cy="0" r="5" fill="#f59e0b"/>
    <text x="90" y="4" fill="#92400e" font-family="sans-serif" font-size="10" font-weight="bold">ALERTS: 3</text>
  </g>
  
  <!-- Activity pulses -->
  <g opacity="0.7">
    <circle cx="180" cy="50" r="4" fill="#ef4444">
      <animate attributeName="opacity" values="1;0.3;1" dur="2s" repeatCount="indefinite"/>
    </circle>
    <circle cx="180" cy="50" r="8" fill="none" stroke="#ef4444" stroke-width="1">
      <animate attributeName="r" values="4;12;4" dur="2s" repeatCount="indefinite"/>
      <animate attributeName="opacity" values="1;0;1" dur="2s" repeatCount="indefinite"/>
    </circle>
  </g>
  
  <!-- Clock/24-7 indicator -->
  <g transform="translate(170, 170)">
    <circle cx="0" cy="0" r="15" fill="#e0f2fe" stroke="#0369a1" stroke-width="2"/>
    <text x="-8" y="-5" fill="#0369a1" font-family="sans-serif" font-size="8" font-weight="bold">24</text>
    <text x="-4" y="8" fill="#0369a1" font-family="sans-serif" font-size="8" font-weight="bold">7</text>
    
    <!-- Clock hands -->
    <line x1="0" y1="0" x2="0" y2="-8" stroke="#0369a1" stroke-width="2"/>
    <line x1="0" y1="0" x2="6" y2="0" stroke="#0369a1" stroke-width="1.5"/>
    <circle cx="0" cy="0" r="1" fill="#0369a1"/>
  </g>
</svg>